HIERARCHY
ROOT Hips
{
	OFFSET 0.000000 0.000000 0.000000 
	CHANNELS 6 Xposition Yposition Zposition Yrotation Zrotation Xrotation 
	JOINT Lumbar
	{
		OFFSET 0.000000 0.000000 0.000000 
		CHANNELS 3 Zrotation Xrotation Yrotation
		JOINT Neck
		{
			OFFSET 0.000000 0.445665 0.000000 
			CHANNELS 3 Zrotation Xrotation Yrotation
			End Site
			{
				OFFSET 0.000000 0.227535 0.000000 
			}
		}
		JOINT RightShoulder
		{
			OFFSET 0.019635 0.377685 0.194865 
			CHANNELS 3 Zrotation Xrotation Yrotation
			JOINT RightElbow
			{
				OFFSET 0.000000 -0.243375 0.000000 
				CHANNELS 2 Zrotation Yrotation
				JOINT RightWrist
				{
					OFFSET 0.000000 -0.264825 0.000000 
					CHANNELS 2 Zrotation Xrotation
					End Site
					{
						OFFSET 0.006600 -0.176220 0.000990 
					}
				}
			}
		}
		JOINT LeftShoulder
		{
			OFFSET 0.019635 0.377685 -0.194865 
			CHANNELS 3 Zrotation Xrotation Yrotation
			JOINT LeftElbow
			{
				OFFSET 0.000000 -0.243375 0.000000 
				CHANNELS 2 Zrotation Yrotation
				JOINT LeftWrist
				{
					OFFSET 0.000000 -0.264825 0.000000 
					CHANNELS 2 Zrotation Xrotation
					End Site
					{
						OFFSET 0.006600 -0.176220 -0.000990 
					}
				}
			}
		}
	}
	JOINT RightHip
	{
		OFFSET 0.052140 -0.069960 0.075570 
		CHANNELS 3 Zrotation Xrotation Yrotation
		JOINT RightKnee
		{
			OFFSET 0.000000 -0.402270 0.000000 
			CHANNELS 1 Zrotation
			JOINT RightAnkle
			{
				OFFSET 0.000000 -0.404085 0.000000 
				CHANNELS 3 Zrotation Xrotation Yrotation
				End Site
				{
					OFFSET 0.204105 -0.089430 0.008415 
				}
			}
		}
	}
	JOINT LeftHip
	{
		OFFSET 0.052140 -0.069960 -0.075570 
		CHANNELS 3 Zrotation Xrotation Yrotation
		JOINT LeftKnee
		{
			OFFSET 0.000000 -0.402270 0.000000 
			CHANNELS 1 Zrotation
			JOINT LeftAnkle
			{
				OFFSET 0.000000 -0.404085 0.000000 
				CHANNELS 3 Zrotation Xrotation Yrotation
				End Site
				{
					OFFSET 0.204105 -0.089430 -0.008415 
				}
			}
		}
	}
}
MOTION
Frames: 23
Frame Time: 0.02
0.23297 0.9417 -0.2375 -30.9457 0 -6.08494 3.60676 2.0699 -11.12878 -4.5788 7.85923 -4.73702 24.45475 -84.85504 -28.40753 40.56192 92.40032 7.92529 1.91896 18.04009 8.09011 -52.76819 92.68033 -127.47649 -23.55317 11.8929 18.09221 6.34334 -6.10915 -12.0328 0.9529 -3.90446 -9.77247 -3.77717 -1.03038 -2.4102 -12.08013 12.35437 4.22063 3.05816
0.24244 0.9401 -0.22915 -30.83091 0 -6.06858 3.57867 1.9807 -11.23533 -4.55875 8.1668 -4.82204 27.72099 -85.16634 -25.10234 40.69272 92.62431 7.90021 2.03356 17.92329 7.98737 -52.68021 92.71059 -127.68745 -23.70166 11.86936 17.65199 6.48421 -7.16955 -10.06762 1.22922 -3.90135 -9.36056 -4.38846 -0.91739 -2.35025 -12.36479 12.86916 4.38072 3.01722
0.25242 0.93836 -0.22024 -30.65978 0 -6.07205 3.61738 1.90662 -11.35007 -4.59457 8.49138 -4.91916 30.82265 -85.5542 -21.83644 40.76626 92.92542 7.86814 2.15476 17.91883 7.94119 -52.68149 92.67835 -127.6467 -23.85205 11.84825 17.16314 6.65228 -8.27203 -8.83042 1.74304 -3.92355 -8.76366 -4.98149 -0.7702 -2.31008 -12.76313 13.40207 4.55099 2.96625
0.2622 0.93673 -0.21151 -30.5115 0 -6.07997 3.63135 1.83399 -11.46559 -4.61197 8.8183 -5.01249 34.17254 -85.89388 -18.40387 40.85784 93.17867 7.84705 2.26618 17.8597 7.86347 -52.63907 92.65844 -127.74767 -24.0102 11.82914 16.69282 6.8239 -9.22402 -7.29699 2.08577 -3.93037 -8.3021 -5.58372 -0.6216 -2.26331 -13.11519 13.91708 4.71535 2.92165
0.27186 0.9349 -0.20306 -30.37562 0 -6.03099 3.62366 1.72641 -11.55887 -4.60314 9.10262 -5.0994 36.82723 -86.29037 -15.56508 40.98459 93.48065 7.7911 2.40682 17.81807 7.80967 -52.60638 92.70862 -127.74593 -24.13373 11.79602 16.23201 6.92942 -10.71297 -5.61648 2.68752 -3.95205 -7.63263 -6.18582 -0.54504 -2.20559 -13.44063 14.47682 4.88936 2.87259
0.28189 0.93347 -0.19391 -30.20013 0 -6.10383 3.67576 1.69336 -11.70338 -4.66009 9.47997 -5.20083 40.85477 -86.58479 -11.53736 41.02288 93.7047 7.80949 2.48795 17.76361 7.7191 -52.57596 92.59518 -127.89062 -24.32896 11.79234 15.74112 7.17695 -11.12112 -4.41529 2.81555 -3.94876 -7.33702 -6.77966 -0.311 -2.17665 -13.85447 14.94335 5.04118 2.82735
0.29288 0.93315 -0.183 -29.93105 0 -6.52606 3.88162 1.88498 -11.96537 -4.89594 10.1068 -5.35735 48.98276 -86.60125 -3.90442 40.84423 93.65493 8.00166 2.40313 17.67298 7.52176 -52.53015 92.07032 -128.53673 -24.72341 11.8778 15.18995 7.83131 -8.27444 -4.3644 1.4978 -3.8776 -8.26782 -7.38768 0.36069 -2.20968 -14.43169 15.18177 5.16516 2.81706
0.30424 0.93325 -0.17139 -29.62399 0 -7.06708 4.14415 2.14733 -12.28227 -5.19352 10.82685 -5.52514 58.445 -86.50871 4.8671 40.57645 93.53161 8.27456 2.25827 17.56043 7.28452 -52.48402 91.37924 -129.331 -25.18911 11.99155 14.60923 8.62379 -4.38499 -4.77041 -0.28972 -3.77928 -9.55483 -7.98071 1.18791 -2.27259 -15.10506 15.31846 5.25998 2.80594
0.31541 0.93319 -0.16007 -29.33245 0 -7.54229 4.37731 2.36249 -12.58947 -5.4556 11.50684 -5.67574 67.11942 -86.451 12.91182 40.34014 93.46845 8.5326 2.14061 17.44064 7.05954 -52.43837 90.74655 -130.03272 -25.62116 12.08696 14.03565 9.33918 -1.14421 -4.96377 -1.81034 -3.68912 -10.58116 -8.56071 1.93673 -2.33107 -15.76712 15.48072 5.34403 2.7816
0.32667 0.93299 -0.14885 -29.0447 0 -8.06823 4.62831 2.64084 -12.83524 -5.7519 12.17933 -5.87644 76.55873 -86.45653 21.83987 40.13815 93.29564 8.69977 2.02289 17.3981 6.85945 -52.39427 90.18009 -130.832 -26.05979 12.20525 13.48623 10.11598 2.82759 -5.20216 -3.54936 -3.61797 -12.01552 -9.22866 2.71896 -2.35468 -16.29063 15.73463 5.52844 2.81743
0.33782 0.93318 -0.13727 -28.74279 0 -8.51628 4.85446 2.80524 -13.21851 -5.98987 12.88733 -5.9769 84.71845 -86.30531 29.1981 39.84655 93.33203 9.07359 1.89177 17.18708 6.59965 -52.34584 89.44205 -131.4669 -26.50021 12.28297 12.88085 10.79729 5.53158 -5.44765 -4.94663 -3.49983 -12.6902 -9.70408 3.46852 -2.45394 -17.13135 15.76853 5.49856 2.72401
0.34862 0.93439 -0.1248 -28.39411 0 -8.72144 4.99988 2.62845 -13.99732 -6.0598 13.68792 -5.78388 89.06332 -85.73123 31.94841 39.30993 93.96988 10.01416 1.73142 16.52362 6.16376 -52.28381 88.22731 -131.61039 -26.94008 12.2389 12.12239 11.18107 4.4231 -5.58155 -5.29918 -3.26428 -11.15427 -9.70161 4.08512 -2.789 -18.76189 15.2619 4.86903 2.30883
0.35928 0.93597 -0.112 -28.0361 0 -8.84365 5.11754 2.33623 -14.90713 -6.06713 14.51769 -5.49209 92.06651 -85.00561 33.07851 38.69013 94.81916 11.15669 1.56091 15.68959 5.6724 -52.21718 86.85363 -131.58577 -27.37701 12.15384 11.31005 11.46369 2.01381 -5.70669 -5.2903 -2.9816 -8.84787 -9.49589 4.66363 -3.19377 -20.71929 14.53091 4.02813 1.75863
0.36997 0.93736 -0.0994 -27.69358 0 -9.00306 5.2466 2.10278 -15.73774 -6.09748 15.32271 -5.25467 95.65556 -84.36028 34.94728 38.12142 95.56768 12.19673 1.39956 14.92799 5.22041 -52.15352 85.58223 -131.63898 -27.80752 12.08905 10.52634 11.79279 0.23692 -5.84503 -5.43886 -2.71615 -6.91126 -9.35137 5.26315 -3.54271 -22.56778 13.87305 3.29314 1.24542
0.38082 0.93886 -0.08659 -27.30157 0 -9.16922 5.38337 1.84503 -16.65326 -6.15286 16.17964 -4.97781 99.39293 -83.66409 36.84676 37.49341 96.33417 13.28595 1.21696 14.18641 4.70891 -52.08677 84.18009 -131.68726 -28.27348 12.01712 9.72374 12.12538 -1.67901 -5.96128 -5.63199 -2.46579 -4.90157 -9.34092 5.8547 -3.99017 -24.25319 13.32729 2.51337 0.82882
0.39129 0.94022 -0.07415 -27.01172 0 -9.29944 5.49603 1.60972 -17.42235 -6.14053 16.93396 -4.75926 102.48406 -83.03787 38.28151 36.97041 97.11342 14.31817 1.07696 13.36384 4.30665 -52.02462 83.01221 -131.7089 -28.6637 11.95143 8.94847 12.42389 -3.62622 -6.11489 -5.6409 -2.17524 -2.85957 -8.99939 6.44899 -4.25424 -26.35362 12.50375 1.7798 0.1868
0.40085 0.94113 -0.06273 -27.00103 0 -9.35519 5.55471 1.46278 -17.75343 -5.95513 17.39887 -4.72745 104.12226 -82.65429 38.83222 36.75745 97.8851 15.15584 1.05772 12.35106 4.23728 -51.98301 82.55298 -131.6554 -28.84828 11.90009 8.25904 12.66044 -5.35703 -6.37507 -5.22299 -1.76735 -0.8909 -7.82634 7.08263 -3.94501 -29.52336 10.90457 1.20337 -1.10924
0.41003 0.94189 -0.05172 -27.0955 0 -9.37601 5.58878 1.34234 -17.93208 -5.70369 17.75878 -4.7571 105.14852 -82.34456 38.96444 36.65344 98.66124 15.92647 1.08195 11.26421 4.27658 -51.94524 82.33198 -131.58795 -28.95639 11.85859 7.59979 12.86402 -7.07421 -6.67055 -4.63111 -1.32393 1.07919 -6.32189 7.71493 -3.45711 -33.09483 9.04746 0.6859 -2.61334
0.41933 0.94272 -0.04059 -27.14439 0 -9.40948 5.62995 1.21068 -18.182 -5.48308 18.16565 -4.75789 106.44682 -81.99346 39.28122 36.50034 99.42958 16.71934 1.08608 10.21693 4.25487 -51.90096 81.98723 -131.55439 -29.09671 11.82103 6.92854 13.07725 -8.79598 -6.94659 -4.12072 -0.90891 3.03521 -4.94654 8.33288 -3.08465 -36.48423 7.34865 0.15501 -3.98242
0.42884 0.94359 -0.02917 -27.18014 0 -9.45448 5.68719 1.0718 -18.43038 -5.25684 18.57703 -4.76029 107.72711 -81.67004 39.56779 36.34292 100.22872 17.55408 1.09103 9.13916 4.28063 -51.87544 81.70047 -131.39951 -29.24561 11.74697 6.24756 13.30992 -10.57979 -7.23684 -3.58745 -0.44133 5.0805 -3.65139 9.01455 -2.57365 -39.89756 5.4623 -0.44333 -5.53554
0.43783 0.94432 -0.01846 -27.27267 0 -9.46732 5.70577 0.95545 -18.64116 -5.0275 18.95339 -4.77382 108.91393 -81.30843 39.83658 36.22094 100.96314 18.28301 1.10505 8.10901 4.23362 -51.81333 81.35376 -131.49526 -29.36114 11.75129 5.59547 13.49513 -12.20112 -7.50609 -3.06558 -0.07435 6.92276 -2.11751 9.5614 -2.30339 -43.33389 3.91605 -0.87992 -6.74231
0.44545 0.94469 -0.00955 -27.45974 0 -9.40807 5.62081 0.89796 -18.80831 -4.80478 19.26071 -4.81666 110.02039 -80.82495 40.18373 36.17552 101.5066 18.73493 1.13094 7.23417 3.96385 -51.6359 80.76607 -132.29503 -29.37988 11.97433 5.00991 13.56118 -13.48438 -7.70678 -2.61528 -0.00358 8.26329 0.02999 9.75547 -2.78113 -46.8859 3.30477 -0.92255 -7.03501
0.45256 0.94493 -0.00134 -27.70735 0 -9.31667 5.49838 0.86242 -18.93727 -4.58123 19.53565 -4.86729 111.05433 -80.30115 40.5307 36.16157 101.98535 19.08157 1.16495 6.40989 3.61703 -51.42386 80.11416 -133.34654 -29.37166 12.27526 4.45384 13.58041 -14.57753 -7.88556 -2.18468 -0.03384 9.38386 2.39786 9.81048 -3.50054 -50.4144 3.05704 -0.79684 -6.95587
